<svg xmlns="http://www.w3.org/2000/svg" width="512" height="512" viewBox="0 0 512 512"><path fill="#FFDB24" d="M512 472c0 22.094-17.906 40-40 40H40c-22.094 0-40-17.906-40-40V40C0 17.906 17.906 0 40 0h432c22.094 0 40 17.906 40 40v432z"/><path fill="#009AD6" d="M464.868 202.666v6.735c-.352.729-.616 1.519-1.069 2.179-2.716 3.959-5.31 8.017-8.258 11.798-4.976 6.382-10.209 12.564-15.29 18.865-5.022 6.228-9.996 12.495-14.981 18.752-4.882 6.127-9.838 12.199-14.599 18.418-3.405 4.447-6.223 9.373-9.87 13.596-6.11 7.076-13.37 12.596-23.054 13.97-1.969.28-3.919.689-5.878 1.039-45.94 0-91.879.005-137.818-.049-.606-.001-2.073.983-1.923-.913 2.712-3.253 5.516-6.435 8.117-9.775 5.717-7.341 11.283-14.8 17.001-22.141 7.132-9.156 14.382-18.22 21.533-27.362 7.731-9.883 15.406-19.809 23.107-29.714 3.138-4.035 6.283-8.065 9.346-11.997-4.274-5.41-8.439-10.664-12.584-15.933-4.921-6.256-9.815-12.533-14.741-18.785-5.026-6.38-10.092-12.728-15.11-19.114-4.915-6.256-9.771-12.559-14.692-18.81a3560.94 3560.94 0 0 0-15.157-19.085c-2.245-2.812-4.546-5.58-6.821-8.368-.445-1.654.636-1.455 1.687-1.454 25.78.014 51.56.011 77.339.011h56.378c.61.206 1.208.538 1.832.598 3.628.352 7.31.368 10.883 1.007 7.118 1.271 13.28 4.23 17.779 10.299 3.996 5.392 8.423 10.466 12.673 15.67 4.502 5.512 9.058 10.981 13.523 16.524 5.498 6.824 10.928 13.702 16.382 20.561 5.162 6.492 10.342 12.97 15.467 19.492 3.42 4.35 6.698 8.801 8.798 13.986z"/><path fill-rule="evenodd" clip-rule="evenodd" fill="#006084" d="M363.161 106.339c2.967 1.914 5.551 3.99 7.734 6.23 3.759 6.452.794 15.553-6.392 24.663-8.564 10.856-26.49 33.649-53.606 68.375L231.132 104.03l121.152.024 1.74.047c.398.053.789.074 1.172.133 3.104.478 5.744 1.176 7.965 2.105z"/><path fill="#009AD6" d="M47.132 309.334v-6.735c.352-.729.616-1.518 1.069-2.179 2.716-3.959 5.31-8.017 8.258-11.798 4.976-6.382 10.209-12.564 15.29-18.865 5.022-6.228 9.996-12.495 14.981-18.752 4.882-6.127 9.838-12.199 14.599-18.418 3.405-4.447 6.223-9.373 9.87-13.596 6.11-7.076 13.37-12.596 23.054-13.97 1.969-.279 3.919-.689 5.878-1.039 45.94 0 91.879-.005 137.818.049.606.001 2.073-.984 1.923.913-2.712 3.253-5.516 6.435-8.117 9.775-5.717 7.341-11.283 14.8-17.001 22.141-7.132 9.156-14.382 18.22-21.533 27.362-7.731 9.883-15.406 19.809-23.107 29.714-3.138 4.035-6.283 8.065-9.346 11.997 4.274 5.41 8.439 10.664 12.584 15.933 4.921 6.256 9.815 12.533 14.741 18.785 5.026 6.38 10.092 12.728 15.11 19.114 4.915 6.256 9.771 12.559 14.692 18.81a3560.94 3560.94 0 0 0 15.157 19.085c2.245 2.812 4.546 5.58 6.821 8.368.445 1.654-.636 1.455-1.687 1.454-25.78-.014-51.56-.011-77.339-.011h-56.378c-.61-.206-1.208-.538-1.832-.598-3.628-.352-7.31-.368-10.883-1.007-7.118-1.271-13.28-4.23-17.779-10.299-3.996-5.392-8.423-10.466-12.673-15.67-4.502-5.512-9.058-10.981-13.523-16.524-5.498-6.824-10.928-13.702-16.382-20.561-5.162-6.492-10.342-12.97-15.467-19.492-3.419-4.35-6.698-8.801-8.798-13.986z"/><path fill-rule="evenodd" clip-rule="evenodd" fill="#006084" d="M148.839 405.661c-2.967-1.914-5.551-3.99-7.734-6.23-3.759-6.452-.794-15.553 6.392-24.663 8.564-10.856 26.49-33.649 53.606-68.375l79.765 101.577-121.152-.023-1.74-.047c-.398-.053-.789-.074-1.172-.133-3.104-.479-5.744-1.177-7.965-2.106z"/></svg>